<mxfile host="app.diagrams.net" modified="2024-07-01T02:15:14.450Z" agent="Mozilla/5.0 (X11; Ubuntu; Linux x86_64; rv:126.0) Gecko/20100101 Firefox/126.0" version="24.6.4" etag="UXx4ZvwP7ou_N-0kSxDj" type="github">
  <diagram name="Page-1" id="SOSvXahRQ6l2BedBnHbG">
    <mxGraphModel>
      <root>
        <mxCell id="0" />
        <mxCell id="1" parent="0" />
      </root>
    </mxGraphModel>
  </diagram>
</mxfile>
